# xmcd
#
# Track frame offsets:
#	150
#	16612
#	29480
#	46985
#	58735
#	69540
#	86400
#	101417
#	114540
#	127177
#
# Disc length: 1920 seconds
#
# Revision: 2
# Processed by: cddbd v1.5.2PL0 Copyright (c) Steve Scherf et al.
# Submitted via: audiograbber 1.83.01
#
DISCID=80077e0a
DTITLE=Oak Ridge Boys - Country Christmas Eve
DYEAR=1995
DGENRE=Country
TTITLE0=Pretty Little Baby Child
TTITLE1=Blue Christmas
TTITLE2=Manger Medley
TTITLE3=Mrs. Santa Claus
TTITLE4=Daddy's Christmas Eve
TTITLE5=Santa Claus Is Coming To Town
TTITLE6=I'll Be Home For Christmas
TTITLE7=Thank God For Kids
TTITLE8=O Little Town Of Bethlehem
TTITLE9=Jesus Is Born Today
EXTD=
EXTT0=
EXTT1=
EXTT2=
EXTT3=
EXTT4=
EXTT5=
EXTT6=
EXTT7=
EXTT8=
EXTT9=
PLAYORDER=
